# xmcd
# 
# Track frame offsets:
#     150
#     11860
#     35152
#     64927
#     93877
#     105755
#     141932
#     158560
#     173715
#     194135
# 
# Disc length: 2760
# 
# Revision: 3
# Processed by: cddbd v1.5.2PL0 Copyright (c) Steve Scherf et al.
# Submitted via: BonkEnc v1.0.8
# 
DISCID=830ac60a
DTITLE=Charlie Byrd Trio - Byrd and Brass - Concord 1986
DYEAR=1986
DGENRE=Jazz
TTITLE0=Strike Up the Band
TTITLE1=Byrd and Brass - Movement 1
TTITLE2=Byrd and Brass - Movement 2
TTITLE3=Byrd and Brass - Movement 3
TTITLE4=Thou Swell
TTITLE5=En Memoria de Chano Pozo
TTITLE6=Solitude
TTITLE7=Franz Und Johann
TTITLE8=I'm Gettin' Sentimental Over You
TTITLE9=I Don't Mean a Thing
EXTD=YEAR: 1986
EXTT0=
EXTT1=
EXTT2=
EXTT3=
EXTT4=
EXTT5=
EXTT6=
EXTT7=
EXTT8=
EXTT9=
PLAYORDER=
